<svg width="432" height="148" viewBox="0 0 432 148" fill="none" xmlns="http://www.w3.org/2000/svg">
<g clip-path="url(#clip0_1017_3265)">
<path d="M41.028 139.571C40.9329 139.392 40.8022 139.25 40.624 139.143C40.4458 139.036 40.2557 138.988 40.0537 138.988C39.8517 138.988 39.6735 139.036 39.4952 139.131C39.317 139.226 39.1863 139.38 39.1031 139.571L35.895 146.308C35.8356 146.45 35.8 146.581 35.8 146.688C35.8 146.914 35.895 147.092 36.0733 147.246C36.2515 147.401 36.4654 147.484 36.6911 147.484C36.8456 147.484 36.9882 147.436 37.1308 147.353C37.2615 147.27 37.3565 147.151 37.4278 146.985L38.0575 145.583H42.0855L42.7152 146.985C42.7865 147.151 42.8934 147.282 43.0241 147.353C43.1548 147.436 43.2974 147.484 43.4519 147.484C43.6777 147.484 43.8915 147.401 44.0698 147.246C44.248 147.092 44.343 146.902 44.343 146.688C44.343 146.581 44.3074 146.45 44.248 146.308L41.0399 139.571H41.028ZM38.6873 144.181L40.0774 141.091L41.4557 144.181H38.6873ZM62.9025 139.25C63.0688 139.416 63.152 139.642 63.152 139.915V143.979C63.152 145.131 62.8431 146.022 62.2252 146.628C61.6073 147.234 60.7162 147.543 59.5399 147.543C58.3636 147.543 57.4725 147.246 56.8665 146.64C56.2605 146.034 55.9516 145.155 55.9516 143.979V139.915C55.9516 139.642 56.0348 139.416 56.2011 139.25C56.3675 139.083 56.5932 139 56.8665 139C57.1398 139 57.3655 139.083 57.52 139.25C57.6863 139.416 57.7695 139.642 57.7695 139.915V144.062C57.7695 144.727 57.924 145.238 58.2329 145.583C58.5418 145.927 58.9815 146.106 59.5518 146.106C60.1221 146.106 60.5736 145.927 60.8826 145.571C61.1915 145.214 61.3459 144.715 61.3459 144.062V139.915C61.3459 139.642 61.4291 139.416 61.5836 139.25C61.7499 139.083 61.9638 139 62.249 139C62.5341 139 62.748 139.083 62.9144 139.25H62.9025ZM82.056 139.808C82.056 140.319 81.7589 140.569 81.1767 140.569H79.2519V146.581C79.2519 146.854 79.1687 147.08 79.0024 147.246C78.836 147.413 78.6103 147.496 78.3251 147.496C78.0399 147.496 77.8261 147.413 77.6597 147.246C77.4934 147.08 77.4102 146.854 77.4102 146.581V140.569H75.4853C74.9031 140.569 74.6061 140.319 74.6061 139.808C74.6061 139.297 74.9031 139.06 75.4853 139.06H81.1886C81.7708 139.06 82.0679 139.309 82.0679 139.808H82.056ZM99.0946 139.476C98.4767 139.131 97.7638 138.953 96.9202 138.953C96.0766 138.953 95.3637 139.131 94.7577 139.476C94.1398 139.82 93.6646 140.319 93.3319 140.961C92.9992 141.602 92.8328 142.363 92.8328 143.242C92.8328 144.121 92.9992 144.87 93.3319 145.523C93.6646 146.165 94.1398 146.664 94.7577 147.021C95.3755 147.377 96.0884 147.555 96.9202 147.555C97.7519 147.555 98.4767 147.377 99.0946 147.021C99.7124 146.664 100.188 146.165 100.508 145.523C100.841 144.882 101.008 144.121 101.008 143.242C101.008 142.363 100.841 141.614 100.508 140.961C100.176 140.319 99.7005 139.82 99.0946 139.476ZM98.5718 145.369C98.1678 145.856 97.6212 146.106 96.9202 146.106C96.2192 146.106 95.6726 145.856 95.2805 145.369C94.8884 144.882 94.6864 144.169 94.6864 143.242C94.6864 142.315 94.8884 141.602 95.2805 141.115C95.6726 140.628 96.2192 140.39 96.9202 140.39C97.6212 140.39 98.1797 140.64 98.5718 141.115C98.9639 141.602 99.1658 142.315 99.1658 143.242C99.1658 144.169 98.9639 144.882 98.5718 145.369ZM121.195 139.25C121.361 139.416 121.444 139.642 121.444 139.903V146.652C121.444 146.914 121.373 147.116 121.219 147.27C121.064 147.424 120.874 147.496 120.624 147.496C120.375 147.496 120.197 147.424 120.042 147.27C119.888 147.116 119.816 146.914 119.816 146.652V142.458L118.129 145.63C118.022 145.832 117.892 145.987 117.761 146.082C117.63 146.177 117.476 146.224 117.286 146.224C117.096 146.224 116.953 146.177 116.822 146.082C116.692 145.987 116.561 145.832 116.454 145.63L114.767 142.517V146.652C114.767 146.902 114.695 147.116 114.541 147.27C114.386 147.424 114.196 147.496 113.947 147.496C113.697 147.496 113.519 147.424 113.365 147.27C113.21 147.116 113.139 146.914 113.139 146.652V139.903C113.139 139.63 113.222 139.416 113.377 139.25C113.531 139.083 113.757 139 114.018 139C114.398 139 114.684 139.202 114.886 139.606L117.298 144.181L119.698 139.606C119.912 139.202 120.197 139 120.553 139C120.815 139 121.028 139.083 121.195 139.25ZM138.412 139.571C138.317 139.392 138.186 139.25 138.008 139.143C137.829 139.036 137.639 138.988 137.437 138.988C137.235 138.988 137.057 139.036 136.879 139.131C136.701 139.226 136.57 139.38 136.487 139.571L133.279 146.308C133.219 146.45 133.184 146.581 133.184 146.688C133.184 146.914 133.279 147.092 133.457 147.246C133.635 147.401 133.849 147.484 134.075 147.484C134.229 147.484 134.372 147.436 134.514 147.353C134.645 147.27 134.74 147.151 134.811 146.985L135.441 145.583H139.469L140.099 146.985C140.17 147.151 140.277 147.282 140.408 147.353C140.538 147.436 140.681 147.484 140.835 147.484C141.061 147.484 141.275 147.401 141.453 147.246C141.632 147.092 141.727 146.902 141.727 146.688C141.727 146.581 141.691 146.45 141.632 146.308L138.423 139.571H138.412ZM136.071 144.181L137.461 141.091L138.839 144.181H136.071ZM158.955 139.808C158.955 140.319 158.658 140.569 158.076 140.569H156.151V146.581C156.151 146.854 156.068 147.08 155.902 147.246C155.735 147.413 155.51 147.496 155.224 147.496C154.939 147.496 154.725 147.413 154.559 147.246C154.393 147.08 154.309 146.854 154.309 146.581V140.569H152.385C151.802 140.569 151.505 140.319 151.505 139.808C151.505 139.297 151.802 139.06 152.385 139.06H158.088C158.67 139.06 158.967 139.309 158.967 139.808H158.955ZM172.049 139.25C172.215 139.416 172.299 139.642 172.299 139.915V146.581C172.299 146.866 172.215 147.092 172.049 147.258C171.883 147.424 171.657 147.508 171.372 147.508C171.087 147.508 170.861 147.424 170.695 147.258C170.528 147.092 170.445 146.866 170.445 146.581V139.915C170.445 139.642 170.528 139.416 170.695 139.25C170.861 139.083 171.087 139 171.372 139C171.657 139 171.883 139.083 172.049 139.25ZM190.68 139.476C190.062 139.131 189.349 138.953 188.505 138.953C187.662 138.953 186.949 139.131 186.343 139.476C185.725 139.82 185.25 140.319 184.917 140.961C184.584 141.602 184.418 142.363 184.418 143.242C184.418 144.121 184.584 144.87 184.917 145.523C185.25 146.165 185.725 146.664 186.343 147.021C186.961 147.377 187.674 147.555 188.505 147.555C189.337 147.555 190.062 147.377 190.68 147.021C191.298 146.664 191.773 146.165 192.094 145.523C192.426 144.882 192.593 144.121 192.593 143.242C192.593 142.363 192.426 141.614 192.094 140.961C191.761 140.319 191.286 139.82 190.68 139.476ZM190.157 145.369C189.753 145.856 189.206 146.106 188.505 146.106C187.804 146.106 187.258 145.856 186.866 145.369C186.474 144.882 186.272 144.169 186.272 143.242C186.272 142.315 186.474 141.602 186.866 141.115C187.258 140.628 187.804 140.39 188.505 140.39C189.206 140.39 189.765 140.64 190.157 141.115C190.549 141.602 190.751 142.315 190.751 143.242C190.751 144.169 190.549 144.882 190.157 145.369ZM211.734 139.25C211.901 139.416 211.972 139.642 211.972 139.903V146.569C211.972 146.842 211.889 147.068 211.734 147.234C211.568 147.401 211.354 147.484 211.093 147.484C210.808 147.484 210.582 147.377 210.404 147.175L206.423 142.078V146.557C206.423 146.83 206.352 147.056 206.197 147.223C206.043 147.389 205.829 147.472 205.58 147.472C205.33 147.472 205.104 147.389 204.95 147.223C204.795 147.056 204.712 146.83 204.712 146.557V139.891C204.712 139.618 204.795 139.404 204.95 139.238C205.104 139.072 205.33 138.988 205.592 138.988C205.889 138.988 206.114 139.095 206.269 139.297L210.249 144.359V139.903C210.249 139.63 210.332 139.416 210.487 139.25C210.641 139.083 210.855 139 211.105 139C211.354 139 211.58 139.083 211.746 139.25H211.734ZM244.362 139.476C243.744 139.131 243.031 138.953 242.188 138.953C241.344 138.953 240.631 139.131 240.013 139.476C239.395 139.82 238.92 140.319 238.587 140.961C238.255 141.602 238.088 142.363 238.088 143.242C238.088 144.121 238.255 144.87 238.587 145.523C238.92 146.165 239.395 146.664 240.013 147.021C240.631 147.377 241.344 147.555 242.188 147.555C243.031 147.555 243.744 147.377 244.362 147.021C244.98 146.664 245.455 146.165 245.776 145.523C246.109 144.882 246.275 144.121 246.275 143.242C246.275 142.363 246.109 141.614 245.776 140.961C245.443 140.319 244.968 139.82 244.362 139.476ZM243.839 145.369C243.435 145.856 242.889 146.106 242.199 146.106C241.51 146.106 240.952 145.856 240.56 145.369C240.168 144.882 239.966 144.169 239.966 143.242C239.966 142.315 240.168 141.602 240.56 141.115C240.952 140.628 241.498 140.39 242.199 140.39C242.9 140.39 243.459 140.64 243.851 141.115C244.243 141.602 244.445 142.315 244.445 143.242C244.445 144.169 244.243 144.882 243.851 145.369H243.839ZM264.003 139.238C264.145 139.357 264.216 139.547 264.216 139.796C264.216 140.046 264.145 140.224 264.003 140.343C263.86 140.462 263.634 140.521 263.337 140.521H260.212V142.446H263.1C263.397 142.446 263.622 142.505 263.765 142.624C263.908 142.743 263.979 142.933 263.979 143.183C263.979 143.432 263.908 143.61 263.765 143.729C263.622 143.848 263.397 143.907 263.1 143.907H260.212V146.581C260.212 146.866 260.129 147.092 259.963 147.258C259.796 147.424 259.583 147.508 259.309 147.508C259.036 147.508 258.81 147.424 258.632 147.258C258.466 147.092 258.383 146.866 258.383 146.593V139.939C258.383 139.666 258.454 139.452 258.608 139.297C258.763 139.143 258.977 139.072 259.25 139.072H263.337C263.634 139.072 263.86 139.131 264.003 139.25V139.238ZM301.68 139.19C301.846 139.333 301.929 139.523 301.929 139.773C301.929 139.891 301.906 140.022 301.858 140.165L299.387 146.925C299.315 147.116 299.185 147.27 299.007 147.377C298.828 147.484 298.638 147.531 298.412 147.531C298.187 147.531 298.008 147.484 297.83 147.377C297.652 147.27 297.533 147.127 297.462 146.925L295.691 141.923L293.874 146.925C293.802 147.116 293.683 147.27 293.505 147.377C293.327 147.484 293.137 147.531 292.923 147.531C292.709 147.531 292.531 147.484 292.353 147.377C292.174 147.27 292.056 147.127 291.972 146.925L289.501 140.165C289.454 140.034 289.43 139.903 289.43 139.784C289.43 139.535 289.513 139.345 289.691 139.202C289.869 139.06 290.071 138.977 290.309 138.977C290.499 138.977 290.665 139.024 290.82 139.119C290.974 139.214 291.093 139.369 291.165 139.559L292.994 144.822L294.895 139.582C294.967 139.392 295.086 139.25 295.24 139.143C295.394 139.036 295.561 138.988 295.739 138.988C295.917 138.988 296.084 139.036 296.238 139.143C296.393 139.25 296.499 139.392 296.571 139.594L298.389 144.917L300.278 139.559C300.349 139.369 300.456 139.226 300.599 139.119C300.741 139.024 300.908 138.977 301.098 138.977C301.324 138.977 301.525 139.048 301.692 139.19H301.68ZM319.61 139.476C318.992 139.131 318.279 138.953 317.435 138.953C316.592 138.953 315.879 139.131 315.261 139.476C314.643 139.82 314.168 140.319 313.835 140.961C313.502 141.602 313.336 142.363 313.336 143.242C313.336 144.121 313.502 144.87 313.835 145.523C314.168 146.165 314.643 146.664 315.261 147.021C315.879 147.377 316.592 147.555 317.435 147.555C318.279 147.555 318.992 147.377 319.61 147.021C320.228 146.664 320.703 146.165 321.024 145.523C321.356 144.882 321.523 144.121 321.523 143.242C321.523 142.363 321.356 141.614 321.024 140.961C320.691 140.319 320.216 139.82 319.61 139.476ZM319.087 145.369C318.683 145.856 318.136 146.106 317.447 146.106C316.758 146.106 316.2 145.856 315.807 145.369C315.415 144.882 315.213 144.169 315.213 143.242C315.213 142.315 315.415 141.602 315.807 141.115C316.2 140.628 316.746 140.39 317.447 140.39C318.148 140.39 318.707 140.64 319.099 141.115C319.491 141.602 319.693 142.315 319.693 143.242C319.693 144.169 319.491 144.882 319.099 145.369H319.087ZM339.595 144.906C339.417 144.644 339.238 144.442 339.048 144.311C338.858 144.169 338.656 144.074 338.407 144.026C339.06 143.896 339.559 143.61 339.916 143.183C340.272 142.755 340.45 142.22 340.45 141.579C340.45 140.759 340.201 140.141 339.69 139.701C339.191 139.274 338.442 139.06 337.456 139.06H334.474C334.201 139.06 333.987 139.131 333.832 139.285C333.678 139.44 333.606 139.654 333.606 139.927V146.581C333.606 146.866 333.69 147.092 333.856 147.258C334.022 147.424 334.248 147.508 334.533 147.508C334.818 147.508 335.032 147.424 335.199 147.258C335.365 147.092 335.448 146.866 335.448 146.581V144.181H336.411C336.636 144.181 336.826 144.228 336.981 144.323C337.135 144.418 337.278 144.561 337.409 144.775L338.977 147.104C339.072 147.258 339.191 147.365 339.333 147.436C339.476 147.508 339.619 147.543 339.773 147.543C340.011 147.543 340.225 147.472 340.391 147.329C340.569 147.187 340.664 147.009 340.664 146.783C340.664 146.617 340.605 146.45 340.486 146.272L339.583 144.917L339.595 144.906ZM337.207 142.779H335.436V140.474H337.207C337.741 140.474 338.122 140.569 338.359 140.747C338.597 140.925 338.716 141.222 338.716 141.626C338.716 142.03 338.597 142.315 338.359 142.494C338.122 142.684 337.741 142.779 337.207 142.779ZM358.416 146.688C358.416 147.187 358.131 147.436 357.548 147.436H353.52C353.247 147.436 353.033 147.365 352.879 147.211C352.724 147.056 352.653 146.842 352.653 146.569V139.915C352.653 139.642 352.736 139.416 352.903 139.25C353.069 139.083 353.295 139 353.58 139C353.865 139 354.091 139.083 354.257 139.25C354.423 139.416 354.507 139.642 354.507 139.915V145.927H357.548C358.131 145.927 358.416 146.177 358.416 146.688ZM375.644 139.559C374.991 139.226 374.207 139.06 373.292 139.06H370.904C370.63 139.06 370.416 139.131 370.262 139.285C370.107 139.44 370.036 139.654 370.036 139.927V146.569C370.036 146.842 370.107 147.056 370.262 147.211C370.416 147.365 370.63 147.436 370.904 147.436H373.292C374.207 147.436 375.003 147.27 375.656 146.937C376.31 146.605 376.809 146.117 377.153 145.5C377.498 144.87 377.676 144.121 377.676 143.242C377.676 142.363 377.498 141.626 377.153 140.996C376.809 140.367 376.298 139.891 375.644 139.559ZM373.161 145.939H371.89V140.557H373.161C374.943 140.557 375.835 141.448 375.835 143.242C375.835 145.036 374.943 145.939 373.161 145.939ZM396.2 144.977C396.2 145.488 396.057 145.927 395.772 146.319C395.487 146.712 395.095 147.009 394.584 147.223C394.073 147.436 393.479 147.543 392.814 147.543C392.184 147.543 391.602 147.472 391.067 147.329C390.532 147.187 390.093 146.973 389.748 146.7C389.629 146.617 389.546 146.521 389.487 146.415C389.439 146.319 389.415 146.189 389.415 146.046C389.415 145.844 389.475 145.678 389.606 145.523C389.724 145.369 389.867 145.298 390.021 145.298C390.105 145.298 390.2 145.31 390.271 145.345C390.354 145.369 390.461 145.416 390.568 145.488C390.913 145.702 391.257 145.856 391.602 145.951C391.946 146.046 392.338 146.094 392.754 146.094C393.277 146.094 393.681 146.011 393.954 145.832C394.228 145.654 394.37 145.405 394.37 145.084C394.37 144.834 394.239 144.644 393.978 144.49C393.717 144.335 393.265 144.193 392.612 144.062C391.875 143.907 391.281 143.729 390.841 143.515C390.402 143.301 390.081 143.04 389.879 142.719C389.677 142.398 389.57 142.018 389.57 141.567C389.57 141.068 389.712 140.616 390.01 140.212C390.295 139.808 390.699 139.499 391.21 139.274C391.721 139.048 392.303 138.941 392.944 138.941C394.073 138.941 395 139.226 395.725 139.784C395.844 139.88 395.927 139.975 395.974 140.082C396.022 140.177 396.046 140.295 396.046 140.438C396.046 140.64 395.986 140.806 395.867 140.961C395.749 141.115 395.606 141.187 395.44 141.187C395.356 141.187 395.273 141.187 395.19 141.151C395.119 141.127 395.012 141.08 394.881 140.996C394.56 140.794 394.251 140.64 393.99 140.533C393.717 140.426 393.372 140.379 392.944 140.379C392.457 140.379 392.077 140.474 391.804 140.652C391.53 140.842 391.388 141.091 391.388 141.424C391.388 141.614 391.435 141.769 391.542 141.888C391.649 142.006 391.827 142.125 392.077 142.22C392.327 142.315 392.683 142.41 393.146 142.517C394.228 142.755 395 143.064 395.475 143.432C395.95 143.801 396.176 144.311 396.176 144.965L396.2 144.977ZM122.407 94.3602C128.3 105.268 124.237 118.896 113.329 124.79C102.421 130.683 88.793 126.619 82.8996 115.712L38.7586 34.0123C32.8652 23.1048 36.9288 9.47631 47.8363 3.58291C58.7438 -2.31048 72.3723 1.75311 78.2657 12.6606L122.407 94.3483V94.3602ZM48.1571 103.414C48.1571 116.71 37.3803 127.487 24.0845 127.487C10.7887 127.487 0 116.71 0 103.414C0 90.1184 10.7768 79.3415 24.0726 79.3415C37.3684 79.3415 48.1452 90.1184 48.1452 103.414H48.1571ZM317.257 115.712C311.364 126.619 297.735 130.683 286.828 124.79C275.92 118.896 271.857 105.268 277.75 94.3602L321.891 12.6725C327.784 1.76499 341.413 -2.2986 352.32 3.59479C363.228 9.48819 367.291 23.1167 361.398 34.0242L317.257 115.712ZM238.991 24.9583C238.991 11.6626 249.78 0.885734 263.076 0.885734C276.372 0.885734 287.148 11.6626 287.148 24.9583C287.148 38.2541 276.372 49.031 263.076 49.031C249.78 49.031 239.003 38.2541 239.003 24.9583H238.991ZM429.303 34.0123L385.162 115.7C379.268 126.608 365.64 130.671 354.732 124.778C343.825 118.884 339.761 105.256 345.655 94.3483L389.796 12.6606C395.689 1.75311 409.318 -2.31048 420.225 3.58291C431.133 9.47631 435.196 23.1048 429.303 34.0123ZM256.303 54.2471C256.814 57.4908 257.087 60.8059 257.087 64.1922C257.087 99.1486 228.749 127.487 193.793 127.487C158.836 127.487 130.498 99.1486 130.498 64.1922C130.498 29.2358 158.836 0.897616 193.793 0.897616C209.465 0.897616 223.783 6.61278 234.833 16.0351C233.918 18.9105 233.419 21.9641 233.419 25.1366C233.419 39.2403 243.174 51.0628 256.291 54.2471H256.303Z" fill="url(#paint0_linear_1017_3265)"/>
</g>
<defs>
<linearGradient id="paint0_linear_1017_3265" x1="0" y1="74.2086" x2="432" y2="74.2086" gradientUnits="userSpaceOnUse">
<stop stop-color="#084D6C"/>
<stop offset="1" stop-color="#001D30"/>
</linearGradient>
<clipPath id="clip0_1017_3265">
<rect width="432" height="147" fill="white" transform="translate(0 0.5)"/>
</clipPath>
</defs>
</svg>
