<svg width="25" height="24" viewBox="0 0 25 24" fill="none" xmlns="http://www.w3.org/2000/svg">
<path d="M23.7719 0.75V6.84375C23.7719 6.96807 23.724 7.0873 23.6388 7.17521C23.5535 7.26311 23.4379 7.3125 23.3174 7.3125C23.1968 7.3125 23.0812 7.26311 22.996 7.17521C22.9107 7.0873 22.8628 6.96807 22.8628 6.84375V1.88145L16.3662 8.58164C16.2809 8.6696 16.1653 8.71901 16.0446 8.71901C15.924 8.71901 15.8083 8.6696 15.7231 8.58164C15.6378 8.49368 15.5898 8.37439 15.5898 8.25C15.5898 8.12561 15.6378 8.00632 15.7231 7.91836L22.2202 1.21875H17.4083C17.2877 1.21875 17.1721 1.16936 17.0869 1.08146C17.0016 0.993549 16.9537 0.87432 16.9537 0.75C16.9537 0.62568 17.0016 0.506451 17.0869 0.418544C17.1721 0.330636 17.2877 0.28125 17.4083 0.28125H23.3174C23.4379 0.28125 23.5535 0.330636 23.6388 0.418544C23.724 0.506451 23.7719 0.62568 23.7719 0.75Z" fill="black"/>
<circle cx="11.293" cy="12.75" r="11.25" fill="white"/>
<path d="M11.293 1.5C14.2473 1.5 16.9341 2.64041 18.9414 4.50293L10.9326 12.9697C10.8476 13.0576 10.7999 13.1767 10.7998 13.3008C10.7998 13.4251 10.8474 13.5449 10.9326 13.6328C11.0179 13.7208 11.1343 13.7705 11.2549 13.7705C11.3754 13.7704 11.491 13.7207 11.5762 13.6328L19.5928 5.15723C21.4245 7.1584 22.543 9.82328 22.543 12.75C22.543 18.9632 17.5062 24 11.293 24C5.07977 24 0.0429688 18.9632 0.0429688 12.75C0.0429688 6.5368 5.07977 1.5 11.293 1.5Z" fill="#006D9F"/>
</svg>
