<svg width="140" height="48" viewBox="0 0 140 48" fill="none" xmlns="http://www.w3.org/2000/svg">
<path d="M14.369 47.7186C14.369 47.7927 14.3396 47.8519 14.281 47.9037C14.2223 47.9556 14.1563 47.9778 14.083 47.9778C14.0317 47.9778 13.9877 47.963 13.9437 47.9334C13.8998 47.9037 13.8631 47.8667 13.8411 47.8075L13.6358 47.3484H12.3309L12.1256 47.8075C12.1036 47.8593 12.067 47.9037 12.0303 47.9334C11.9863 47.963 11.9424 47.9778 11.891 47.9778C11.8177 47.9778 11.7517 47.9556 11.6931 47.9037C11.6345 47.8519 11.6051 47.7927 11.6051 47.7186C11.6051 47.6816 11.6125 47.6372 11.6345 47.5928L12.6755 45.3864C12.7048 45.3272 12.7488 45.2753 12.8001 45.2457C12.8587 45.2161 12.9174 45.1939 12.9834 45.1939C13.0494 45.1939 13.1153 45.2087 13.1666 45.2457C13.2253 45.2827 13.2693 45.3272 13.2986 45.3864L14.3396 47.5928C14.3616 47.6372 14.369 47.6816 14.369 47.7186ZM12.5362 46.8968H13.4306L12.9834 45.8825L12.5362 46.8968ZM18.4304 47.7038C18.2324 47.5039 18.1298 47.2152 18.1298 46.8376V45.5049C18.1298 45.416 18.1591 45.342 18.2104 45.2901C18.2618 45.2383 18.3351 45.2087 18.423 45.2087C18.511 45.2087 18.5843 45.2383 18.6356 45.2901C18.687 45.342 18.7163 45.416 18.7163 45.5049V46.8598C18.7163 47.0745 18.7676 47.2448 18.8629 47.3559C18.9582 47.4669 19.1048 47.5261 19.2954 47.5261C19.4861 47.5261 19.6253 47.4669 19.728 47.3559C19.8306 47.2374 19.8746 47.0745 19.8746 46.8598V45.5049C19.8746 45.416 19.9039 45.342 19.9552 45.2901C20.0066 45.2383 20.0799 45.2087 20.1678 45.2087C20.2558 45.2087 20.3291 45.2383 20.3804 45.2901C20.4318 45.342 20.4611 45.416 20.4611 45.5049V46.8376C20.4611 47.2152 20.3585 47.5039 20.1605 47.7038C19.9626 47.9037 19.6693 48 19.2881 48C18.9069 48 18.621 47.9037 18.423 47.7038H18.4304ZM25.1677 47.9037C25.109 47.8519 25.087 47.7779 25.087 47.689V45.7196H24.4639C24.2733 45.7196 24.178 45.6381 24.178 45.4678C24.178 45.2975 24.2733 45.2235 24.4639 45.2235H26.3113C26.5019 45.2235 26.5972 45.305 26.5972 45.4678C26.5972 45.6307 26.5019 45.7196 26.3113 45.7196H25.6882V47.689C25.6882 47.7779 25.6588 47.8519 25.6075 47.9037C25.5562 47.9556 25.4829 47.9852 25.3876 47.9852C25.2923 47.9852 25.2263 47.9556 25.1677 47.9037ZM30.71 47.8297C30.512 47.7112 30.3581 47.5484 30.2481 47.341C30.1381 47.1263 30.0868 46.882 30.0868 46.5932C30.0868 46.3045 30.1381 46.0602 30.2481 45.8454C30.3581 45.6307 30.512 45.4752 30.71 45.3568C30.9079 45.2457 31.1425 45.1865 31.4137 45.1865C31.685 45.1865 31.9196 45.2457 32.1175 45.3568C32.3155 45.4678 32.4694 45.6307 32.5794 45.8454C32.6894 46.0602 32.7407 46.3045 32.7407 46.5932C32.7407 46.882 32.6894 47.1263 32.5794 47.341C32.4694 47.5558 32.3155 47.7186 32.1175 47.8297C31.9196 47.9482 31.685 48 31.4137 48C31.1425 48 30.9079 47.9408 30.71 47.8297ZM31.9416 47.2892C32.0735 47.1263 32.1395 46.8968 32.1395 46.5932C32.1395 46.2897 32.0736 46.0602 31.9489 45.8973C31.817 45.7418 31.641 45.6603 31.4137 45.6603C31.1865 45.6603 31.0105 45.7418 30.8786 45.8973C30.754 46.0602 30.688 46.2897 30.688 46.5932C30.688 46.8968 30.754 47.1263 30.8786 47.2892C31.0032 47.4521 31.1865 47.5335 31.4064 47.5335C31.6264 47.5335 31.8096 47.4521 31.9416 47.2892ZM39.2727 45.2901C39.324 45.3494 39.3533 45.416 39.3533 45.5049V47.7112C39.3533 47.8001 39.3313 47.8667 39.28 47.9111C39.2287 47.963 39.1701 47.9852 39.0894 47.9852C39.0088 47.9852 38.9501 47.963 38.8988 47.9111C38.8475 47.8593 38.8255 47.7927 38.8255 47.7112V46.3415L38.2757 47.3781C38.239 47.4447 38.2023 47.4965 38.1584 47.5261C38.1144 47.5558 38.0631 47.5706 38.0044 47.5706C37.9458 47.5706 37.8944 47.5558 37.8578 47.5261C37.8211 47.4965 37.7771 47.4447 37.7405 47.3781L37.1907 46.3563V47.7112C37.1907 47.7927 37.1687 47.8593 37.1173 47.9111C37.066 47.963 37.0074 47.9852 36.9267 47.9852C36.8461 47.9852 36.7874 47.963 36.7361 47.9111C36.6848 47.8593 36.6628 47.7927 36.6628 47.7112V45.5049C36.6628 45.416 36.6921 45.342 36.7435 45.2901C36.7948 45.2383 36.8681 45.2087 36.9487 45.2087C37.0734 45.2087 37.1687 45.2753 37.2273 45.4086L38.0117 46.9042L38.7888 45.4086C38.8548 45.2753 38.9501 45.2087 39.0674 45.2087C39.1554 45.2087 39.2214 45.2383 39.2727 45.2901ZM45.9293 47.7186C45.9293 47.7927 45.9 47.8519 45.8414 47.9037C45.7827 47.9556 45.7167 47.9778 45.6434 47.9778C45.5921 47.9778 45.5481 47.963 45.5041 47.9334C45.4601 47.9037 45.4235 47.8667 45.4015 47.8075L45.1962 47.3484H43.8913L43.686 47.8075C43.664 47.8593 43.6274 47.9037 43.5907 47.9334C43.5467 47.963 43.5027 47.9778 43.4514 47.9778C43.3781 47.9778 43.3121 47.9556 43.2535 47.9037C43.1948 47.8519 43.1655 47.7927 43.1655 47.7186C43.1655 47.6816 43.1728 47.6372 43.1948 47.5928L44.2358 45.3864C44.2652 45.3272 44.3091 45.2753 44.3605 45.2457C44.4191 45.2161 44.4778 45.1939 44.5437 45.1939C44.6097 45.1939 44.6757 45.2087 44.727 45.2457C44.7857 45.2827 44.8297 45.3272 44.859 45.3864L45.9 47.5928C45.922 47.6372 45.9293 47.6816 45.9293 47.7186ZM44.0965 46.8968H44.9909L44.5437 45.8825L44.0965 46.8968ZM50.0861 47.9037C50.0274 47.8519 50.0054 47.7779 50.0054 47.689V45.7196H49.3823C49.1917 45.7196 49.0964 45.6381 49.0964 45.4678C49.0964 45.2975 49.1917 45.2235 49.3823 45.2235H51.2297C51.4203 45.2235 51.5156 45.305 51.5156 45.4678C51.5156 45.6307 51.4203 45.7196 51.2297 45.7196H50.6066V47.689C50.6066 47.7779 50.5772 47.8519 50.5259 47.9037C50.4746 47.9556 50.4013 47.9852 50.306 47.9852C50.2107 47.9852 50.1447 47.9556 50.0861 47.9037ZM55.3205 47.9037C55.2691 47.8519 55.2398 47.7779 55.2398 47.6816V45.4975C55.2398 45.4086 55.2691 45.3346 55.3205 45.2827C55.3718 45.2309 55.4451 45.2013 55.5404 45.2013C55.6357 45.2013 55.709 45.2309 55.7603 45.2827C55.8116 45.3346 55.841 45.4086 55.841 45.4975V47.6816C55.841 47.7779 55.8116 47.8519 55.7603 47.9037C55.709 47.9556 55.6357 47.9852 55.5404 47.9852C55.4451 47.9852 55.3718 47.9556 55.3205 47.9037ZM60.3862 47.8297C60.1883 47.7112 60.0344 47.5484 59.9244 47.341C59.8144 47.1263 59.7631 46.882 59.7631 46.5932C59.7631 46.3045 59.8144 46.0602 59.9244 45.8454C60.0344 45.6307 60.1883 45.4752 60.3862 45.3568C60.5842 45.2457 60.8188 45.1865 61.09 45.1865C61.3613 45.1865 61.5959 45.2457 61.7938 45.3568C61.9918 45.4678 62.1457 45.6307 62.2557 45.8454C62.3656 46.0602 62.417 46.3045 62.417 46.5932C62.417 46.882 62.3656 47.1263 62.2557 47.341C62.1457 47.5558 61.9918 47.7186 61.7938 47.8297C61.5959 47.9482 61.3613 48 61.09 48C60.8188 48 60.5842 47.9408 60.3862 47.8297ZM61.6252 47.2892C61.7572 47.1263 61.8231 46.8968 61.8231 46.5932C61.8231 46.2897 61.7572 46.0602 61.6325 45.8973C61.5006 45.7418 61.3246 45.6603 61.0974 45.6603C60.8701 45.6603 60.6942 45.7418 60.5622 45.8973C60.4376 46.0602 60.3716 46.2897 60.3716 46.5932C60.3716 46.8968 60.4376 47.1263 60.5622 47.2892C60.6868 47.4521 60.8701 47.5335 61.09 47.5335C61.31 47.5335 61.4932 47.4521 61.6252 47.2892ZM68.6191 45.2901C68.6704 45.3494 68.6997 45.416 68.6997 45.5049V47.689C68.6997 47.7779 68.6704 47.8519 68.6191 47.9111C68.5677 47.9704 68.4944 47.9926 68.4138 47.9926C68.3185 47.9926 68.2452 47.9556 68.1939 47.8889L66.9036 46.223V47.689C66.9036 47.7779 66.8816 47.8519 66.8303 47.9111C66.779 47.9704 66.713 47.9926 66.625 47.9926C66.537 47.9926 66.4711 47.963 66.4197 47.9111C66.3684 47.8593 66.3464 47.7853 66.3464 47.689V45.5049C66.3464 45.416 66.3758 45.342 66.4271 45.2901C66.4784 45.2383 66.5517 45.2087 66.6323 45.2087C66.7276 45.2087 66.801 45.2457 66.8523 45.3124L68.1425 46.9708V45.5123C68.1425 45.4234 68.1719 45.3494 68.2232 45.2975C68.2745 45.2457 68.3405 45.2161 68.4211 45.2161C68.5018 45.2161 68.5751 45.2457 68.6264 45.2975L68.6191 45.2901ZM77.7829 47.8297C77.585 47.7112 77.4311 47.5484 77.3211 47.341C77.2111 47.1263 77.1598 46.882 77.1598 46.5932C77.1598 46.3045 77.2111 46.0602 77.3211 45.8454C77.4311 45.6307 77.585 45.4752 77.7829 45.3568C77.9809 45.2457 78.2155 45.1865 78.4867 45.1865C78.758 45.1865 78.9926 45.2457 79.1905 45.3568C79.3884 45.4678 79.5424 45.6307 79.6524 45.8454C79.7623 46.0602 79.8137 46.3045 79.8137 46.5932C79.8137 46.882 79.7623 47.1263 79.6524 47.341C79.5424 47.5558 79.3884 47.7186 79.1905 47.8297C78.9926 47.9482 78.758 48 78.4867 48C78.2155 48 77.9809 47.9408 77.7829 47.8297ZM79.0219 47.2892C79.1539 47.1263 79.2198 46.8968 79.2198 46.5932C79.2198 46.2897 79.1539 46.0602 79.0292 45.8973C78.9046 45.7418 78.7213 45.6603 78.4941 45.6603C78.2668 45.6603 78.0908 45.7418 77.9589 45.8973C77.8343 46.0602 77.7683 46.2897 77.7683 46.5932C77.7683 46.8968 77.8343 47.1263 77.9589 47.2892C78.0835 47.4521 78.2668 47.5335 78.4867 47.5335C78.7067 47.5335 78.8899 47.4521 79.0219 47.2892ZM83.8164 47.9037C83.7578 47.8519 83.7358 47.7779 83.7358 47.6816V45.5049C83.7358 45.416 83.7578 45.342 83.8091 45.2975C83.8604 45.2531 83.9264 45.2235 84.0144 45.2235H85.3413C85.4366 45.2235 85.5099 45.2457 85.5539 45.2827C85.5979 45.3198 85.6199 45.379 85.6199 45.4678C85.6199 45.5567 85.5979 45.6085 85.5539 45.6455C85.5099 45.6826 85.4366 45.7048 85.3413 45.7048H84.3296V46.3341H85.268C85.3633 46.3341 85.4366 46.3563 85.4806 46.3933C85.5246 46.4304 85.5466 46.4896 85.5466 46.5784C85.5466 46.6673 85.5246 46.7191 85.4806 46.7561C85.4366 46.7932 85.3633 46.8154 85.268 46.8154H84.3296V47.689C84.3296 47.7853 84.3003 47.8593 84.249 47.9111C84.1977 47.963 84.1243 47.9926 84.0364 47.9926C83.9484 47.9926 83.8751 47.963 83.8164 47.9111V47.9037ZM97.4156 45.2457C97.4669 45.2161 97.5183 45.1939 97.5769 45.1939C97.6502 45.1939 97.7162 45.2161 97.7675 45.2605C97.8188 45.3049 97.8482 45.3716 97.8482 45.453C97.8482 45.4901 97.8408 45.5345 97.8262 45.5789L97.0271 47.7927C97.0051 47.8519 96.9611 47.9037 96.9024 47.9408C96.8438 47.9778 96.7778 47.9926 96.7118 47.9926C96.6459 47.9926 96.5799 47.9778 96.5212 47.9408C96.4626 47.9037 96.4259 47.8593 96.4039 47.7927L95.8321 46.1564L95.2456 47.7927C95.2236 47.8519 95.1796 47.9037 95.1283 47.9408C95.077 47.9778 95.011 47.9926 94.9377 47.9926C94.8644 47.9926 94.8057 47.9778 94.7544 47.9408C94.6958 47.9037 94.6591 47.8593 94.6298 47.7927L93.8307 45.5789C93.816 45.5345 93.8087 45.4901 93.8087 45.453C93.8087 45.3716 93.838 45.3124 93.8967 45.2605C93.9553 45.2087 94.0213 45.1865 94.0946 45.1865C94.1533 45.1865 94.2119 45.2013 94.2632 45.2383C94.3146 45.2679 94.3512 45.3198 94.3732 45.379L94.967 47.1041L95.5828 45.3864C95.6048 45.3272 95.6415 45.2753 95.6928 45.2457C95.7441 45.2087 95.7954 45.1939 95.8541 45.1939C95.9127 45.1939 95.9641 45.2087 96.0154 45.2457C96.0667 45.2827 96.1033 45.3272 96.1253 45.3938L96.7118 47.1337L97.3276 45.379C97.3496 45.3198 97.3863 45.2679 97.4303 45.2383L97.4156 45.2457ZM102.174 47.8297C101.976 47.7112 101.822 47.5484 101.712 47.341C101.602 47.1263 101.55 46.882 101.55 46.5932C101.55 46.3045 101.602 46.0602 101.712 45.8454C101.822 45.6307 101.976 45.4752 102.174 45.3568C102.371 45.2457 102.606 45.1865 102.877 45.1865C103.149 45.1865 103.383 45.2457 103.581 45.3568C103.779 45.4678 103.933 45.6307 104.043 45.8454C104.153 46.0602 104.204 46.3045 104.204 46.5932C104.204 46.882 104.153 47.1263 104.043 47.341C103.933 47.5558 103.779 47.7186 103.581 47.8297C103.383 47.9482 103.149 48 102.877 48C102.606 48 102.371 47.9408 102.174 47.8297ZM103.405 47.2892C103.537 47.1263 103.603 46.8968 103.603 46.5932C103.603 46.2897 103.537 46.0602 103.412 45.8973C103.288 45.7418 103.105 45.6603 102.877 45.6603C102.65 45.6603 102.474 45.7418 102.342 45.8973C102.217 46.0602 102.152 46.2897 102.152 46.5932C102.152 46.8968 102.217 47.1263 102.342 47.2892C102.467 47.4521 102.65 47.5335 102.87 47.5335C103.09 47.5335 103.273 47.4521 103.405 47.2892ZM110.406 47.7483C110.406 47.8223 110.377 47.8815 110.318 47.926C110.26 47.9704 110.194 47.9926 110.113 47.9926C110.062 47.9926 110.018 47.9778 109.974 47.9556C109.93 47.9334 109.886 47.8963 109.856 47.8445L109.351 47.0819C109.307 47.0153 109.263 46.9634 109.211 46.9338C109.16 46.9042 109.101 46.8894 109.028 46.8894H108.713V47.6742C108.713 47.7705 108.684 47.8445 108.632 47.8963C108.581 47.9482 108.508 47.9778 108.42 47.9778C108.332 47.9778 108.251 47.9482 108.2 47.8963C108.148 47.8445 108.119 47.7705 108.119 47.6742V45.4975C108.119 45.4086 108.141 45.3346 108.192 45.2901C108.244 45.2383 108.31 45.2161 108.398 45.2161H109.365C109.681 45.2161 109.922 45.2901 110.084 45.4308C110.245 45.5715 110.326 45.7788 110.326 46.0453C110.326 46.2527 110.267 46.4304 110.15 46.571C110.032 46.7117 109.871 46.8006 109.659 46.845C109.739 46.8598 109.805 46.8894 109.864 46.9338C109.922 46.9782 109.981 47.0449 110.04 47.1337L110.333 47.578C110.37 47.6372 110.392 47.689 110.392 47.7483H110.406ZM109.659 46.3489C109.739 46.2897 109.776 46.1934 109.776 46.0602C109.776 45.9269 109.739 45.8306 109.659 45.7714C109.578 45.7122 109.461 45.6826 109.285 45.6826H108.713V46.4378H109.285C109.453 46.4378 109.578 46.4081 109.659 46.3489ZM114.358 47.8889C114.306 47.8371 114.284 47.7705 114.284 47.6816V45.5049C114.284 45.416 114.314 45.342 114.365 45.2901C114.416 45.2383 114.49 45.2087 114.585 45.2087C114.68 45.2087 114.754 45.2383 114.805 45.2901C114.856 45.342 114.886 45.416 114.886 45.5049V47.4743H115.868C116.059 47.4743 116.147 47.5558 116.147 47.7261C116.147 47.8963 116.051 47.9704 115.868 47.9704H114.563C114.475 47.9704 114.402 47.9482 114.358 47.8963V47.8889ZM119.995 47.8889C119.944 47.8371 119.922 47.7705 119.922 47.6816V45.5049C119.922 45.416 119.944 45.342 119.995 45.2975C120.047 45.2457 120.113 45.2235 120.201 45.2235H120.978C121.271 45.2235 121.528 45.2753 121.74 45.3864C121.953 45.4975 122.114 45.6529 122.231 45.8602C122.341 46.0676 122.4 46.3119 122.4 46.5932C122.4 46.8746 122.341 47.1263 122.231 47.3336C122.121 47.541 121.96 47.6964 121.748 47.8075C121.535 47.9186 121.278 47.9704 120.978 47.9704H120.201C120.113 47.9704 120.039 47.9482 119.995 47.8963V47.8889ZM120.934 47.4743C121.513 47.4743 121.799 47.1782 121.799 46.5932C121.799 46.0083 121.513 45.7122 120.934 45.7122H120.523V47.4743H120.934ZM126.74 47.926C126.564 47.8741 126.425 47.8075 126.315 47.7186C126.278 47.689 126.249 47.6594 126.234 47.6298C126.219 47.6002 126.212 47.5558 126.212 47.5039C126.212 47.4373 126.234 47.3855 126.271 47.3336C126.307 47.2818 126.359 47.2596 126.41 47.2596C126.439 47.2596 126.469 47.2596 126.491 47.2744C126.52 47.2818 126.549 47.2966 126.586 47.3262C126.696 47.3929 126.806 47.4447 126.923 47.4817C127.033 47.5113 127.158 47.5335 127.297 47.5335C127.466 47.5335 127.598 47.5039 127.686 47.4447C127.774 47.3855 127.818 47.304 127.818 47.2004C127.818 47.1189 127.774 47.0523 127.693 47.0079C127.612 46.956 127.458 46.9116 127.246 46.8672C127.004 46.8154 126.813 46.7561 126.674 46.6895C126.535 46.6229 126.425 46.534 126.359 46.4304C126.293 46.3267 126.263 46.2008 126.263 46.0528C126.263 45.8899 126.307 45.7418 126.403 45.6085C126.498 45.4752 126.623 45.379 126.791 45.3049C126.96 45.2309 127.143 45.1939 127.348 45.1939C127.715 45.1939 128.016 45.2827 128.25 45.4678C128.287 45.4975 128.316 45.5271 128.331 45.5641C128.346 45.5937 128.353 45.6381 128.353 45.6826C128.353 45.7492 128.331 45.801 128.294 45.8528C128.258 45.9047 128.206 45.9269 128.155 45.9269C128.126 45.9269 128.104 45.9269 128.074 45.9121C128.052 45.9047 128.016 45.8899 127.972 45.8602C127.869 45.7936 127.766 45.7418 127.678 45.7122C127.59 45.6751 127.48 45.6603 127.341 45.6603C127.187 45.6603 127.063 45.69 126.975 45.7492C126.887 45.8084 126.843 45.8973 126.843 46.0009C126.843 46.0602 126.857 46.112 126.894 46.1564C126.931 46.1934 126.989 46.2304 127.07 46.2601C127.151 46.2897 127.268 46.3267 127.414 46.3563C127.766 46.4378 128.016 46.534 128.17 46.6525C128.324 46.7709 128.397 46.9412 128.397 47.1559C128.397 47.3188 128.353 47.4669 128.258 47.5928C128.17 47.7186 128.038 47.8149 127.869 47.8889C127.7 47.9556 127.51 47.9926 127.297 47.9926C127.092 47.9926 126.909 47.9704 126.733 47.9186L126.74 47.926ZM93.061 7.87783C93.061 3.5317 89.564 0 85.2533 0C80.9426 0 77.453 3.5317 77.453 7.87783C77.453 12.224 80.95 15.7557 85.2533 15.7557C89.5567 15.7557 93.0536 12.224 93.0536 7.87783H93.061ZM25.3656 3.85747C23.4522 0.288755 19.0389 -1.04396 15.5053 0.888478C11.9717 2.82092 10.6521 7.27811 12.5655 10.8468L26.8685 37.5826C28.7819 41.1513 33.1952 42.484 36.7288 40.5516C40.2624 38.6192 41.582 34.162 39.6686 30.5932L25.3656 3.85747ZM7.80029 25.677C3.4896 25.677 0 29.2087 0 33.5548C0 37.901 3.49693 41.4327 7.80029 41.4327C12.1036 41.4327 15.6006 37.901 15.6006 33.5548C15.6006 29.2087 12.1036 25.677 7.80029 25.677ZM114.182 0.888478C110.648 -1.04396 106.235 0.288755 104.322 3.85747L90.0185 30.5932C88.1051 34.162 89.4247 38.6192 92.9583 40.5516C96.4919 42.484 100.905 41.1513 102.819 37.5826L117.122 10.8468C119.035 7.27811 117.715 2.82092 114.182 0.888478ZM136.182 0.888478C132.649 -1.04396 128.236 0.288755 126.322 3.85747L112.019 30.5932C110.106 34.162 111.425 38.6192 114.959 40.5516C118.493 42.484 122.906 41.1513 124.819 37.5826L139.122 10.8468C141.036 7.27811 139.716 2.82092 136.182 0.888478ZM75.6496 7.93707C75.6496 6.90051 75.8109 5.90097 76.1041 4.96067C72.5265 1.87321 67.8786 0 62.8055 0C51.479 0 42.2931 9.27719 42.2931 20.7237C42.2931 32.1703 51.479 41.4401 62.8055 41.4401C74.132 41.4401 83.3179 32.1629 83.3179 20.7237C83.3179 19.6131 83.2299 18.5322 83.0613 17.466C78.8093 16.422 75.6496 12.5571 75.6496 7.93707Z" fill="url(#paint0_linear_1230_1814)"/>
<defs>
<linearGradient id="paint0_linear_1230_1814" x1="-230.171" y1="180.844" x2="-90.169" y2="180.844" gradientUnits="userSpaceOnUse">
<stop stop-color="#084D6C"/>
<stop offset="1" stop-color="#001D30"/>
</linearGradient>
</defs>
</svg>
