<svg width="40" height="40" viewBox="0 0 40 40" fill="none" xmlns="http://www.w3.org/2000/svg">
<path d="M39.545 1.25V11.4063C39.545 11.6135 39.4652 11.8122 39.3231 11.9587C39.181 12.1052 38.9883 12.1875 38.7874 12.1875C38.5865 12.1875 38.3938 12.1052 38.2517 11.9587C38.1097 11.8122 38.0298 11.6135 38.0298 11.4063V3.13574L27.2022 14.3027C27.06 14.4493 26.8672 14.5317 26.6662 14.5317C26.4652 14.5317 26.2724 14.4493 26.1302 14.3027C25.9881 14.1561 25.9082 13.9573 25.9082 13.75C25.9082 13.5427 25.9881 13.3439 26.1302 13.1973L36.9588 2.03125H28.9389C28.738 2.03125 28.5453 1.94894 28.4032 1.80243C28.2612 1.65591 28.1814 1.4572 28.1814 1.25C28.1814 1.0428 28.2612 0.844086 28.4032 0.697573C28.5453 0.55106 28.738 0.46875 28.9389 0.46875H38.7874C38.9883 0.46875 39.181 0.55106 39.3231 0.697573C39.4652 0.844086 39.545 1.0428 39.545 1.25Z" fill="black"/>
<circle cx="18.75" cy="21.25" r="18.75" fill="white"/>
<path d="M18.75 2.5C23.6738 2.5 28.1534 4.39879 31.499 7.50293L18.1504 21.6162C18.0082 21.7628 17.9277 21.9616 17.9277 22.1689C17.9278 22.3761 18.0083 22.5752 18.1504 22.7217C18.2924 22.8679 18.4848 22.9501 18.6855 22.9502C18.8864 22.9502 19.0796 22.8681 19.2217 22.7217L32.584 8.59473C35.6368 11.93 37.5 16.3722 37.5 21.25C37.5 31.6053 29.1053 40 18.75 40C8.39466 40 0 31.6053 0 21.25C0 10.8947 8.39466 2.5 18.75 2.5Z" fill="#006D9F"/>
</svg>
